<mxfile host="Electron" agent="Mozilla/5.0 (Windows NT 10.0; Win64; x64) AppleWebKit/537.36 (KHTML, like Gecko) draw.io/28.1.2 Chrome/138.0.7204.243 Electron/37.4.0 Safari/537.36" version="28.1.2">
  <diagram name="PÃ¡gina-1" id="cjPOEdohWjlDS0xKsXPs">
    <mxGraphModel dx="1665" dy="859" grid="1" gridSize="10" guides="1" tooltips="1" connect="1" arrows="1" fold="1" page="1" pageScale="1" pageWidth="827" pageHeight="1169" math="0" shadow="0">
      <root>
        <mxCell id="0" />
        <mxCell id="1" parent="0" />
        <mxCell id="sb65Bus1bZ0andUC07Mn-1" value="" style="rounded=0;whiteSpace=wrap;html=1;movable=0;resizable=0;rotatable=0;deletable=0;editable=0;locked=1;connectable=0;" parent="1" vertex="1">
          <mxGeometry x="214" y="335" width="400" height="500" as="geometry" />
        </mxCell>
        <mxCell id="sb65Bus1bZ0andUC07Mn-10" style="rounded=0;orthogonalLoop=1;jettySize=auto;html=1;exitX=0.5;exitY=0.5;exitDx=0;exitDy=0;exitPerimeter=0;entryX=0;entryY=0.5;entryDx=0;entryDy=0;" parent="1" source="sb65Bus1bZ0andUC07Mn-2" target="sb65Bus1bZ0andUC07Mn-8" edge="1">
          <mxGeometry relative="1" as="geometry">
            <mxPoint x="280" y="440" as="targetPoint" />
          </mxGeometry>
        </mxCell>
        <mxCell id="sb65Bus1bZ0andUC07Mn-2" value="Empleado de mesa" style="shape=umlActor;verticalLabelPosition=bottom;verticalAlign=top;html=1;" parent="1" vertex="1">
          <mxGeometry x="120" y="410" width="30" height="60" as="geometry" />
        </mxCell>
        <mxCell id="sb65Bus1bZ0andUC07Mn-11" style="edgeStyle=none;rounded=0;orthogonalLoop=1;jettySize=auto;html=1;exitX=0.5;exitY=0.5;exitDx=0;exitDy=0;exitPerimeter=0;entryX=0;entryY=0.5;entryDx=0;entryDy=0;" parent="1" source="sb65Bus1bZ0andUC07Mn-3" target="sb65Bus1bZ0andUC07Mn-5" edge="1">
          <mxGeometry relative="1" as="geometry" />
        </mxCell>
        <mxCell id="sb65Bus1bZ0andUC07Mn-3" value="Empleado de rendiciones" style="shape=umlActor;verticalLabelPosition=bottom;verticalAlign=top;html=1;" parent="1" vertex="1">
          <mxGeometry x="120" y="690" width="30" height="60" as="geometry" />
        </mxCell>
        <mxCell id="sb65Bus1bZ0andUC07Mn-4" value="AFIP" style="shape=umlActor;verticalLabelPosition=bottom;verticalAlign=top;html=1;" parent="1" vertex="1">
          <mxGeometry x="680" y="625" width="30" height="60" as="geometry" />
        </mxCell>
        <mxCell id="sb65Bus1bZ0andUC07Mn-5" value="Aprobar minuta" style="ellipse;whiteSpace=wrap;html=1;" parent="1" vertex="1">
          <mxGeometry x="260" y="620" width="140" height="70" as="geometry" />
        </mxCell>
        <mxCell id="sb65Bus1bZ0andUC07Mn-13" style="edgeStyle=none;rounded=0;orthogonalLoop=1;jettySize=auto;html=1;exitX=0;exitY=0.5;exitDx=0;exitDy=0;entryX=1;entryY=0.5;entryDx=0;entryDy=0;" parent="1" source="sb65Bus1bZ0andUC07Mn-6" target="sb65Bus1bZ0andUC07Mn-5" edge="1">
          <mxGeometry relative="1" as="geometry" />
        </mxCell>
        <mxCell id="sb65Bus1bZ0andUC07Mn-16" value="Extend" style="edgeLabel;html=1;align=center;verticalAlign=middle;resizable=0;points=[];" parent="sb65Bus1bZ0andUC07Mn-13" vertex="1" connectable="0">
          <mxGeometry x="0.0085" y="-2" relative="1" as="geometry">
            <mxPoint as="offset" />
          </mxGeometry>
        </mxCell>
        <mxCell id="sb65Bus1bZ0andUC07Mn-6" value="Validar habilitacion" style="ellipse;whiteSpace=wrap;html=1;" parent="1" vertex="1">
          <mxGeometry x="414" y="540" width="140" height="70" as="geometry" />
        </mxCell>
        <mxCell id="sb65Bus1bZ0andUC07Mn-8" value="Crear minuta" style="ellipse;whiteSpace=wrap;html=1;" parent="1" vertex="1">
          <mxGeometry x="285" y="420" width="90" height="50" as="geometry" />
        </mxCell>
        <mxCell id="sb65Bus1bZ0andUC07Mn-9" value="Imprimir listado&lt;div&gt;minutas aprobadas&lt;/div&gt;" style="ellipse;whiteSpace=wrap;html=1;" parent="1" vertex="1">
          <mxGeometry x="260" y="730" width="140" height="70" as="geometry" />
        </mxCell>
        <mxCell id="sb65Bus1bZ0andUC07Mn-12" style="edgeStyle=none;rounded=0;orthogonalLoop=1;jettySize=auto;html=1;exitX=1;exitY=1;exitDx=0;exitDy=0;exitPerimeter=0;entryX=0.036;entryY=0.371;entryDx=0;entryDy=0;entryPerimeter=0;" parent="1" source="sb65Bus1bZ0andUC07Mn-3" target="sb65Bus1bZ0andUC07Mn-9" edge="1">
          <mxGeometry relative="1" as="geometry" />
        </mxCell>
        <mxCell id="sb65Bus1bZ0andUC07Mn-15" value="" style="endArrow=none;html=1;rounded=0;exitX=0.5;exitY=0.5;exitDx=0;exitDy=0;exitPerimeter=0;entryX=1;entryY=0.5;entryDx=0;entryDy=0;" parent="1" source="sb65Bus1bZ0andUC07Mn-4" target="sb65Bus1bZ0andUC07Mn-6" edge="1">
          <mxGeometry width="50" height="50" relative="1" as="geometry">
            <mxPoint x="360" y="550" as="sourcePoint" />
            <mxPoint x="410" y="500" as="targetPoint" />
          </mxGeometry>
        </mxCell>
      </root>
    </mxGraphModel>
  </diagram>
</mxfile>
